0
SECTION
2
HEADER
9
$INSUNITS
70
4
9
$ACADVER
1
AC1014
9
$HANDSEED
5
FFFF
0
ENDSEC
0
SECTION
2
TABLES
0
TABLE
2
VPORT
5
8
100
AcDbSymbolTable
0
ENDTAB
0
TABLE
2
LTYPE
5
5
100
AcDbSymbolTable
0
LTYPE
5
14
100
AcDbSymbolTableRecord
100
AcDbLinetypeTableRecord
2
BYBLOCK
70
0
0
LTYPE
5
15
100
AcDbSymbolTableRecord
100
AcDbLinetypeTableRecord
2
BYLAYER
70
0
0
ENDTAB
0
TABLE
2
LAYER
5
2
100
AcDbSymbolTable
70
2
0
LAYER
5
50
100
AcDbSymbolTableRecord
100
AcDbLayerTableRecord
2
0
70
0
6
CONTINUOUS
0
ENDTAB
0
TABLE
2
STYLE
5
3
100
AcDbSymbolTable
70
1
0
STYLE
5
11
100
AcDbSymbolTableRecord
100
AcDbTextStyleTableRecord
2
STANDARD
70
0
0
ENDTAB
0
TABLE
2
VIEW
5
6
100
AcDbSymbolTable
70
0
0
ENDTAB
0
TABLE
2
UCS
5
7
100
AcDbSymbolTable
70
0
0
ENDTAB
0
TABLE
2
APPID
5
9
100
AcDbSymbolTable
70
2
0
APPID
5
12
100
AcDbSymbolTableRecord
100
AcDbRegAppTableRecord
2
ACAD
70
0
0
ENDTAB
0
TABLE
2
DIMSTYLE
5
A
100
AcDbSymbolTable
70
1
0
ENDTAB
0
TABLE
2
BLOCK_RECORD
5
1
100
AcDbSymbolTable
70
1
0
BLOCK_RECORD
5
1F
100
AcDbSymbolTableRecord
100
AcDbBlockTableRecord
2
*MODEL_SPACE
0
BLOCK_RECORD
5
1B
100
AcDbSymbolTableRecord
100
AcDbBlockTableRecord
2
*PAPER_SPACE
0
ENDTAB
0
ENDSEC
0
SECTION
2
BLOCKS
0
BLOCK
5
20
100
AcDbEntity
100
AcDbBlockBegin
2
*MODEL_SPACE
0
ENDBLK
5
21
100
AcDbEntity
100
AcDbBlockEnd
0
BLOCK
5
1C
100
AcDbEntity
100
AcDbBlockBegin
2
*PAPER_SPACE
0
ENDBLK
5
1D
100
AcDbEntity
100
AcDbBlockEnd
0
ENDSEC
0
SECTION
2
ENTITIES
0
LWPOLYLINE
5
100
100
AcDbEntity
8
0
100
AcDbPolyline
90
913
70
1
43
0.0
10
61.427961000000018
20
6.3047640000000094
10
60.622631000000013
20
5.9269910000000081
10
59.903221000000002
20
5.6270600000000037
10
59.274790999999993
20
5.396687
10
58.64550100000001
20
5.1966890000000099
10
58.421311000000017
20
5.0838170000000016
10
58.31848100000002
20
4.966368999999986
10
58.467411000000027
20
2.6941270000000017
10
58.584691000000007
20
2.5910980000000094
10
58.821690999999987
20
2.5084680000000148
10
59.47171100000002
20
2.3923160000000099
10
60.124831000000007
20
2.2459480000000021
10
60.877231000000016
20
2.0424840000000088
10
61.724990999999996
20
1.7730319999999899
10
62.66356100000003
20
1.4289679999999993
10
63.593131000000014
20
1.0414330000000049
10
63.661231000000015
20
0.0029170000000089402
10
63.593131000000014
20
-1.0355989999999959
10
62.66356100000003
20
-1.4231339999999904
10
61.724990999999996
20
-1.7671989999999926
10
60.877231000000016
20
-2.036623999999998
10
60.124831000000007
20
-2.2400880000000001
10
59.47171100000002
20
-2.3864560000000079
10
58.821690999999987
20
-2.5026339999999969
10
58.584691000000007
20
-2.5852640000000005
10
58.467411000000027
20
-2.6882930000000016
10
58.31848100000002
20
-4.960533999999992
10
58.421311000000017
20
-5.0779829999999926
10
58.64550100000001
20
-5.190854000000007
10
59.274790999999993
20
-5.3908529999999999
10
59.903221000000002
20
-5.6212250000000008
10
60.622631000000013
20
-5.9211569999999902
10
61.427961000000018
20
-6.2989290000000064
10
62.31360100000002
20
-6.7625579999999985
10
63.184631000000024
20
-7.2681240000000003
10
63.116531000000009
20
-8.3066399999999962
10
62.913501000000011
20
-9.3273759999999939
10
62.913611000000017
20
-9.3286729999999984
10
61.941411000000016
20
-9.5915630000000007
10
60.965951000000018
20
-9.8101880000000019
10
60.090281000000019
20
-9.9666619999999995
10
59.317761000000004
20
-10.070167000000003
10
58.651120999999989
20
-10.130046999999998
10
57.991511000000017
20
-10.160367000000008
10
57.74574100000001
20
-10.211356999999994
10
57.616020999999989
20
-10.298197
10
57.171781000000017
20
-12.531572999999998
10
57.258381000000007
20
-12.661422999999994
10
57.465930999999998
20
-12.802582999999998
10
58.063731000000018
20
-13.083013000000001
10
58.656711000000016
20
-13.393453000000006
10
59.330821
20
-13.784713000000002
10
60.079951000000008
20
-14.264383
10
60.897490999999988
20
-14.839633000000001
10
61.695081000000016
20
-15.454583
10
61.492051000000018
20
-16.475313
10
61.157511000000028
20
-17.460832999999994
10
60.159311000000017
20
-17.594582999999993
10
59.163671000000008
20
-17.683983000000005
10
58.275061000000008
20
-17.724783000000002
10
57.495641000000006
20
-17.727782999999995
10
56.826890999999989
20
-17.700083000000006
10
56.168961000000017
20
-17.644083000000002
10
55.918641000000008
20
-17.662583000000005
10
55.778700999999998
20
-17.731782999999997
10
55.04674099999999
20
-19.888052999999999
10
55.115641000000011
20
-20.028103000000002
10
55.302991000000006
20
-20.195163000000001
10
55.859071
20
-20.551213000000004
10
56.406461000000014
20
-20.936393000000002
10
57.023731000000012
20
-21.412292999999998
10
57.703840999999997
20
-21.985643000000003
10
58.439311000000004
20
-22.662693000000004
10
59.149811000000021
20
-23.376453000000001
10
58.815281000000006
20
-24.361972999999999
10
58.354970999999992
20
-25.295372999999994
10
57.34785100000002
20
-25.298372999999998
10
56.34905100000001
20
-25.257072999999998
10
55.462720999999995
20
-25.181573
10
54.689731000000009
20
-25.081572999999999
10
54.030311000000012
20
-24.966883000000003
10
53.385331000000008
20
-24.825433
10
53.134741000000005
20
-24.811133000000005
10
52.986961000000008
20
-24.861433000000002
10
51.979821000000008
20
-26.903722999999999
10
52.029820999999998
20
-27.051572999999998
10
52.193751000000006
20
-27.241653000000007
10
52.698611000000014
20
-27.667263000000002
10
53.191040999999984
20
-28.120572999999997
10
53.740911000000011
20
-28.672962999999999
10
54.34037099999999
20
-29.330192999999998
10
54.981171000000003
20
-30.097453000000002
10
55.592431000000019
20
-30.897853000000005
10
55.132121000000005
20
-31.831272999999996
10
54.553911000000014
20
-32.696622999999995
10
53.555111000000011
20
-32.567453
10
52.570250999999999
20
-32.396133000000006
10
51.701351000000017
20
-32.205603000000004
10
50.948021000000011
20
-32.005603000000001
10
50.309220999999994
20
-31.805792999999998
10
49.68821100000001
20
-31.581372999999999
10
49.441641000000004
20
-31.534472999999998
10
49.28856100000003
20
-31.565072999999995
10
48.023471000000001
20
-33.458432999999999
10
48.053771000000012
20
-33.611573
10
48.191490999999985
20
-33.821413
10
48.636471000000014
20
-34.309252999999998
10
49.06552099999999
20
-34.822963000000001
10
49.538591000000011
20
-35.442433000000001
10
50.047131000000022
20
-36.172263000000001
10
50.582301000000015
20
-37.016603000000003
10
51.083861000000027
20
-37.889932999999999
10
50.505651
20
-38.755282999999999
10
49.819440999999998
20
-39.537762999999998
10
48.846040999999985
20
-39.279342999999997
10
47.891971000000012
20
-38.980923000000004
10
47.055380999999997
20
-38.678603000000003
10
46.334590999999996
20
-38.381983000000005
10
45.727340999999996
20
-38.100512999999999
10
45.140940999999998
20
-37.796962999999998
10
44.902601000000004
20
-37.718263
10
44.746840999999989
20
-37.728563000000001
10
43.245431000000011
20
-39.440583000000004
10
43.255531000000005
20
-39.596363000000004
10
43.364700999999997
20
-39.822372999999999
10
43.742190999999991
20
-40.364163000000005
10
44.100521000000015
20
-40.929473000000002
10
44.488681
20
-41.605373
10
44.897611000000026
20
-42.395342999999997
10
45.317991000000006
20
-43.302303000000002
10
45.701261000000017
20
-44.233643000000001
10
45.015061000000003
20
-45.016113000000004
10
44.232590999999992
20
-45.702313000000004
10
43.30124099999999
20
-45.319063
10
42.394281000000014
20
-44.898673000000002
10
41.604311000000024
20
-44.489733000000001
10
40.928411000000011
20
-44.101582999999991
10
40.363091000000004
20
-43.743262999999999
10
39.821321000000012
20
-43.365752999999998
10
39.595301000000021
20
-43.256613000000002
10
39.439521000000006
20
-43.246513000000007
10
37.727501000000018
20
-44.747923000000007
10
37.717101
20
-44.903683000000001
10
37.795801000000004
20
-45.142023000000002
10
38.099351000000006
20
-45.728413000000003
10
38.380821000000012
20
-46.335662999999997
10
38.677441000000016
20
-47.056462999999994
10
38.979751
20
-47.893053000000009
10
39.278161000000011
20
-48.847113
10
39.536591000000016
20
-49.820513000000005
10
38.754120999999998
20
-50.506732999999997
10
37.888771000000006
20
-51.084932999999999
10
37.015431000000021
20
-50.583382999999998
10
36.171100999999993
20
-50.048212999999997
10
35.441260999999997
20
-49.53966299999999
10
34.821801000000008
20
-49.066613000000004
10
34.308091000000012
20
-48.637563
10
33.820231000000014
20
-48.192563
10
33.610391000000007
20
-48.054842999999998
10
33.457261000000003
20
-48.024543000000001
10
31.563910999999987
20
-49.289643000000005
10
31.533311000000008
20
-49.442713000000005
10
31.580210999999991
20
-49.689303000000002
10
31.804631000000008
20
-50.310303000000005
10
32.004431000000011
20
-50.949083000000002
10
32.204431000000007
20
-51.702432999999999
10
32.394961000000002
20
-52.571322999999992
10
32.566291000000014
20
-53.556182999999997
10
32.69544100000001
20
-54.554992999999996
10
31.830101000000006
20
-55.133213000000005
10
30.896691000000001
20
-55.593502999999998
10
30.096281000000005
20
-54.982233000000001
10
29.329031000000008
20
-54.341442999999998
10
28.671810999999998
20
-53.742002999999997
10
28.119400999999993
20
-53.192123000000002
10
27.666081000000009
20
-52.699673000000004
10
27.24048100000001
20
-52.194823
10
27.050421
20
-52.030893000000006
10
26.902550999999999
20
-51.980893000000002
10
24.860270999999994
20
-52.988032999999994
10
24.809970999999997
20
-53.135802999999996
10
24.824371000000003
20
-53.386393000000005
10
24.96580100000001
20
-54.031393000000001
10
25.080511000000012
20
-54.690782999999996
10
25.180510999999992
20
-55.463792999999995
10
25.256011000000012
20
-56.350123000000004
10
25.297310999999993
20
-57.348922999999999
10
25.295310999999998
20
-58.356032999999996
10
24.36190100000001
20
-58.816352999999999
10
23.376400999999998
20
-59.150892999999996
10
22.662621000000005
20
-58.440383000000004
10
21.985573000000009
20
-57.704923000000001
10
21.412221999999996
20
-57.024803000000006
10
20.936315000000008
20
-56.407533000000001
10
20.551149999999989
20
-55.860143000000008
10
20.195086
20
-55.304062999999999
10
20.028044999999999
20
-55.116712999999997
10
19.88797700000001
20
-55.047813000000005
10
17.73171099999999
20
-55.779772999999999
10
17.662541000000012
20
-55.919713000000002
10
17.644070999999997
20
-56.170042999999993
10
17.700110999999996
20
-56.827953000000008
10
17.72777099999999
20
-57.496713
10
17.725971000000005
20
-58.276122999999998
10
17.685121000000006
20
-59.164723000000009
10
17.595711000000005
20
-60.160382999999996
10
17.461959999999994
20
-61.158573000000004
10
16.476451999999995
20
-61.493113000000001
10
15.455709999999998
20
-61.696153000000002
10
14.840778000000006
20
-60.898563000000003
10
14.26552
20
-60.081033000000005
10
13.785845999999999
20
-59.331893000000008
10
13.394581000000008
20
-58.657783000000009
10
13.084160000000002
20
-58.064803000000005
10
12.803725000000004
20
-57.467003000000005
10
12.662566999999996
20
-57.259463000000004
10
12.532693000000013
20
-57.172862999999992
10
10.299335000000003
20
-57.617103
10
10.212494999999997
20
-57.746823000000006
10
10.161505000000011
20
-57.992592999999999
10
10.131185000000009
20
-58.652203000000007
10
10.071314999999998
20
-59.318853000000004
10
9.9678030000000106
20
-60.091383
10
9.8113219999999934
20
-60.967042999999997
10
9.5927140000000044
20
-61.942513000000005
10
9.3298170000000091
20
-62.914693
10
8.3090740000000007
20
-63.117733000000001
10
7.270563000000001
20
-63.185833000000002
10
6.7649990000000049
20
-62.314803000000005
10
6.3013730000000034
20
-61.429163000000003
10
5.9235839999999929
20
-60.623823000000002
10
5.623655000000003
20
-59.904413000000005
10
5.3932890000000011
20
-59.275983000000004
10
5.1932829999999974
20
-58.646692999999999
10
5.0804220000000022
20
-58.422513000000009
10
4.962964000000003
20
-58.319673000000009
10
2.6907269999999972
20
-58.468603000000002
10
2.5876959999999993
20
-58.585892999999999
10
2.5050660000000047
20
-58.822882999999997
10
2.3889090000000035
20
-59.472912999999998
10
2.2425400000000106
20
-60.126033000000007
10
2.0390790000000081
20
-60.878433000000001
10
1.7696390000000051
20
-61.726182999999999
10
1.425578999999999
20
-62.664763000000001
10
1.0380330000000004
20
-63.594323000000003
10
-0.00047900000000211662
20
-63.662422999999997
10
-1.0389909999999958
20
-63.594323000000003
10
-1.4265370000000033
20
-62.664763000000001
10
-1.7705970000000004
20
-61.726182999999999
10
-2.0400369999999945
20
-60.878433000000001
10
-2.2434979999999971
20
-60.126033000000007
10
-2.3898669999999989
20
-59.472912999999998
10
-2.506024
20
-58.822882999999997
10
-2.5886540000000036
20
-58.585892999999999
10
-2.6916849999999926
20
-58.468603000000002
10
-4.9639219999999895
20
-58.319673000000009
10
-5.0813799999999976
20
-58.422513000000002
10
-5.1942410000000017
20
-58.646693000000013
10
-5.3942469999999965
20
-59.275983000000004
10
-5.6246129999999983
20
-59.904413000000005
10
-5.9245419999999971
20
-60.623823000000002
10
-6.3023310000000077
20
-61.429163000000003
10
-6.7659569999999913
20
-62.314803000000005
10
-7.2715209999999963
20
-63.185833000000002
10
-8.3100319999999961
20
-63.117733000000001
10
-9.3307749999999956
20
-62.914693
10
-9.5936719999999909
20
-61.942513000000005
10
-9.8122800000000066
20
-60.967042999999997
10
-9.9687609999999971
20
-60.091383
10
-10.072273000000003
20
-59.31885299999999
10
-10.132143000000005
20
-58.652203
10
-10.162462999999997
20
-57.992592999999999
10
-10.213453000000001
20
-57.746823000000006
10
-10.300292999999998
20
-57.617103
10
-12.533650999999999
20
-57.172863000000007
10
-12.663525
20
-57.259463000000004
10
-12.804682999999999
20
-57.467003000000005
10
-13.085117999999998
20
-58.064803000000005
10
-13.395539000000003
20
-58.657783000000009
10
-13.786803999999995
20
-59.331893000000008
10
-14.266478000000005
20
-60.081033000000005
10
-14.841735999999992
20
-60.898563000000003
10
-15.456667999999993
20
-61.696153000000002
10
-16.477409999999999
20
-61.493113000000001
10
-17.462917999999998
20
-61.158573000000004
10
-17.596668999999999
20
-60.160382999999996
10
-17.686078999999999
20
-59.164723000000009
10
-17.726928999999998
20
-58.276122999999998
10
-17.728729000000001
20
-57.496713
10
-17.701069
20
-56.827952999999994
10
-17.645029000000001
20
-56.170042999999993
10
-17.663498999999998
20
-55.919713000000002
10
-17.732669000000001
20
-55.779773000000006
10
-19.888934999999996
20
-55.047812999999991
10
-20.029003000000003
20
-55.116712999999997
10
-20.196043999999993
20
-55.304062999999999
10
-20.552108000000004
20
-55.860143000000008
10
-20.937272999999994
20
-56.407533000000001
10
-21.41317999999999
20
-57.024802999999991
10
-21.986530999999996
20
-57.704923000000001
10
-22.663578999999999
20
-58.440383000000004
10
-23.377355999999992
20
-59.150892999999996
10
-24.362864000000002
20
-58.816352999999999
10
-25.296275000000001
20
-58.356032999999996
10
-25.298575
20
-57.348922999999992
10
-25.257265000000004
20
-56.350122999999996
10
-25.181775000000002
20
-55.463792999999995
10
-25.081815000000006
20
-54.690783000000003
10
-24.967105000000004
20
-54.031393000000001
10
-24.825669999999999
20
-53.386393000000005
10
-24.811309999999995
20
-53.135802999999996
10
-24.861620000000002
20
-52.988033000000001
10
-26.903897999999998
20
-51.980893000000002
10
-27.051765999999997
20
-52.030893000000006
10
-27.24183
20
-52.194823
10
-27.66743
20
-52.699673000000004
10
-28.120749000000004
20
-53.192123000000002
10
-28.673153999999993
20
-53.742002999999997
10
-29.330373999999999
20
-54.341442999999998
10
-30.097626000000002
20
-54.982233000000001
10
-30.898035
20
-55.593502999999998
10
-31.831447999999995
20
-55.133213000000005
10
-32.696791999999995
20
-54.554992999999996
10
-32.567633000000001
20
-53.556182999999997
10
-32.396307
20
-52.571323000000007
10
-32.205773000000001
20
-51.702432999999999
10
-32.005774000000002
20
-50.949083000000002
10
-31.805973999999999
20
-50.310303000000005
10
-31.581559999999996
20
-49.689303000000002
10
-31.534620000000004
20
-49.442713000000005
10
-31.565209999999997
20
-49.289643000000005
10
-33.458560999999996
20
-48.024543000000001
10
-33.611694
20
-48.054842999999998
10
-33.821528999999998
20
-48.192563
10
-34.309387000000001
20
-48.637562999999993
10
-34.823101999999999
20
-49.066612999999997
10
-35.442554999999999
20
-49.539663000000004
10
-36.172395000000002
20
-50.048212999999997
10
-37.016725000000001
20
-50.583382999999998
10
-37.890072000000004
20
-51.084932999999999
10
-38.755415999999997
20
-50.506732999999997
10
-39.537886999999998
20
-49.820513000000005
10
-39.279463000000007
20
-48.847113
10
-38.981053000000003
20
-47.893053000000009
10
-38.678733999999999
20
-47.056462999999994
10
-38.382114999999999
20
-46.335662999999997
10
-38.100645999999998
20
-45.728413000000003
10
-37.797094999999999
20
-45.142023000000002
10
-37.718375000000002
20
-44.903683000000001
10
-37.728715000000001
20
-44.747923000000007
10
-39.440739000000001
20
-43.246513
10
-39.596519999999998
20
-43.256613000000002
10
-39.822538000000002
20
-43.365752999999998
10
-40.364304000000004
20
-43.743262999999999
10
-40.929625999999999
20
-44.101582999999998
10
-41.605525
20
-44.489733000000001
10
-42.395499000000001
20
-44.898673000000002
10
-43.302461999999991
20
-45.319063
10
-44.233803000000009
20
-45.702313000000004
10
-45.016273999999996
20
-45.016113000000004
10
-45.702482000000003
20
-44.233643000000001
10
-45.319210999999996
20
-43.302303000000002
10
-44.898826000000007
20
-42.39534299999999
10
-44.489896000000002
20
-41.605373
10
-44.101733999999993
20
-40.929473000000002
10
-43.743409
20
-40.364162999999998
10
-43.365913999999997
20
-39.822372999999999
10
-43.256753000000003
20
-39.596363000000004
10
-43.246673000000001
20
-39.440583000000004
10
-44.748078000000007
20
-37.728563000000001
10
-44.903839999999995
20
-37.718263
10
-45.142173999999997
20
-37.796962999999998
10
-45.728576000000004
20
-38.100512999999999
10
-46.335830999999999
20
-38.381983000000005
10
-47.056614999999994
20
-38.678603000000003
10
-47.893208999999999
20
-38.980923000000004
10
-48.847282999999997
20
-39.279342999999997
10
-49.820682000000005
20
-39.537762999999998
10
-50.506889999999999
20
-38.755282999999999
10
-51.085093999999991
20
-37.889932999999999
10
-50.583539999999999
20
-37.016603000000003
10
-50.048366999999999
20
-36.172263000000001
10
-49.539825000000008
20
-35.442433000000001
10
-49.066760000000002
20
-34.822963000000001
10
-48.637709000000001
20
-34.309252999999998
10
-48.19272999999999
20
-33.821413
10
-48.055003999999997
20
-33.611573
10
-48.024684000000008
20
-33.458432999999999
10
-49.289782000000002
20
-31.565072999999995
10
-49.442859000000006
20
-31.534472999999998
10
-49.689429000000004
20
-31.581372999999999
10
-50.310436000000003
20
-31.805792999999998
10
-50.949238000000001
20
-32.005603000000001
10
-51.702569999999994
20
-32.205603000000004
10
-52.571466999999998
20
-32.396133000000006
10
-53.556327999999993
20
-32.567453
10
-54.555132999999998
20
-32.696622999999995
10
-55.133335000000002
20
-31.831272999999996
10
-55.593643999999998
20
-30.897853000000005
10
-54.982387000000003
20
-30.097453000000002
10
-54.341584999999995
20
-29.330192999999998
10
-53.742128999999998
20
-28.672962999999999
10
-53.192256
20
-28.120572999999997
10
-52.699824000000007
20
-27.667263000000002
10
-52.194973000000005
20
-27.241653000000007
10
-52.031033999999998
20
-27.051572999999998
10
-51.980983999999999
20
-26.903722999999999
10
-52.988125999999994
20
-24.861433000000002
10
-53.135900999999997
20
-24.811133000000005
10
-53.386491000000007
20
-24.825433
10
-54.031475999999998
20
-24.966883000000003
10
-54.690891999999998
20
-25.081572999999999
10
-55.463884999999998
20
-25.181573
10
-56.350216000000003
20
-25.257072999999998
10
-57.349015000000001
20
-25.298372999999998
10
-58.356133
20
-25.295372999999994
10
-58.816439000000003
20
-24.361972999999999
10
-59.150976
20
-23.376453000000001
10
-58.440472
20
-22.662693000000004
10
-57.705007000000002
20
-21.985643000000003
10
-57.024895000000001
20
-21.412292999999998
10
-56.407625000000003
20
-20.936393000000002
10
-55.860234000000005
20
-20.551213000000004
10
-55.304150999999997
20
-20.195163000000001
10
-55.116807000000001
20
-20.028103000000002
10
-55.047886999999996
20
-19.888052999999999
10
-55.779841000000005
20
-17.731782999999997
10
-55.919784000000007
20
-17.662583000000005
10
-56.170103999999995
20
-17.644083000000002
10
-56.828033000000005
20
-17.700083000000006
10
-57.496778000000006
20
-17.727782999999995
10
-58.276205999999995
20
-17.724783000000002
10
-59.164809000000005
20
-17.683983000000005
10
-60.160454000000001
20
-17.594582999999993
10
-61.158653000000001
20
-17.460832999999994
10
-61.493189999999998
20
-16.475313
10
-61.696226000000003
20
-15.454583
10
-60.898637000000008
20
-14.839633000000001
10
-60.081090000000003
20
-14.264383
10
-59.331959000000005
20
-13.784713000000002
10
-58.657851000000001
20
-13.393453000000006
10
-58.064869999999999
20
-13.083013000000001
10
-57.467067000000007
20
-12.802582999999998
10
-57.259523000000002
20
-12.661422999999994
10
-57.172913000000001
20
-12.531572999999998
10
-57.617156000000008
20
-10.298197
10
-57.746873000000001
20
-10.211356999999994
10
-57.992638999999997
20
-10.160367000000008
10
-58.652253999999999
20
-10.130046999999998
10
-59.318889999999996
20
-10.070167000000003
10
-60.091414999999998
20
-9.9666619999999995
10
-60.967084999999997
20
-9.8101880000000019
10
-61.942540000000001
20
-9.5915630000000007
10
-62.914743999999999
20
-9.3286729999999984
10
-63.117783000000003
20
-8.3079370000000008
10
-63.185852999999994
20
-7.2694209999999959
10
-62.314821000000002
20
-6.7638550000000031
10
-61.429181
20
-6.3002249999999993
10
-60.623851000000002
20
-5.9224530000000009
10
-59.904438000000006
20
-5.6225219999999965
10
-59.276012999999999
20
-5.3921490000000016
10
-58.646722999999994
20
-5.1921499999999998
10
-58.422528
20
-5.0792790000000032
10
-58.319705000000006
20
-4.9618310000000054
10
-58.468637000000001
20
-2.6895890000000033
10
-58.585910999999996
20
-2.5865599999999933
10
-58.822916000000006
20
-2.5039299999999987
10
-59.472932
20
-2.387750999999998
10
-60.126049999999999
20
-2.2413839999999929
10
-60.878453999999998
20
-2.037918999999988
10
-61.726208
20
-1.7684939999999916
10
-62.664785999999999
20
-1.424430000000001
10
-63.594353999999996
20
-1.0368949999999888
10
-63.662424000000001
20
0.0016209999999983182
10
-63.594353999999996
20
1.0401370000000032
10
-62.664785999999999
20
1.4276730000000004
10
-61.726208
20
1.7717370000000088
10
-60.878453999999998
20
2.0411880000000071
10
-60.126049999999999
20
2.2446530000000031
10
-59.472932000000007
20
2.3910199999999993
10
-58.822916000000006
20
2.5071729999999981
10
-58.585910999999996
20
2.5898030000000105
10
-58.468637000000008
20
2.6928320000000028
10
-58.319705000000006
20
4.9650729999999932
10
-58.422528
20
5.0825220000000026
10
-58.646723000000009
20
5.195393000000017
10
-59.276012999999999
20
5.3953920000000011
10
-59.904438000000006
20
5.6257640000000109
10
-60.623851000000002
20
5.9256959999999914
10
-61.429181
20
6.3034680000000165
10
-62.314821000000009
20
6.7670969999999997
10
-63.185853000000009
20
7.2726630000000014
10
-63.117783000000003
20
8.3111789999999974
10
-62.914743999999999
20
9.3319149999999951
10
-61.942540000000001
20
9.594832000000002
10
-60.967084999999997
20
9.8134310000000102
10
-60.091414999999998
20
9.9699049999999989
10
-59.318889999999996
20
10.073410000000003
10
-58.652253999999999
20
10.133290000000006
10
-57.992638999999997
20
10.163609999999998
10
-57.746873000000001
20
10.214590000000001
10
-57.617156000000008
20
10.301429999999998
10
-57.172913000000001
20
12.534804000000008
10
-57.259523000000002
20
12.664688000000002
10
-57.467067000000007
20
12.805843999999995
10
-58.064870000000006
20
13.086275000000001
10
-58.657851000000001
20
13.396684999999993
10
-59.331959000000005
20
13.787950000000002
10
-60.081090000000003
20
14.267640000000004
10
-60.898637000000008
20
14.842896999999997
10
-61.696226000000003
20
15.457815000000004
10
-61.493189999999998
20
16.478550999999992
10
-61.158653000000001
20
17.46407099999999
10
-60.160454000000001
20
17.597818000000007
10
-59.164808999999998
20
17.687217999999998
10
-58.276206000000002
20
17.728068000000015
10
-57.496777999999999
20
17.730668000000005
10
-56.828032999999998
20
17.703018000000004
10
-56.170103999999995
20
17.646978000000004
10
-55.919784000000007
20
17.665497999999999
10
-55.779841000000005
20
17.734658000000003
10
-55.047886999999996
20
19.890932999999986
10
-55.116807000000001
20
20.031003999999992
10
-55.304150999999997
20
20.198035000000001
10
-55.860234000000005
20
20.554110999999988
10
-56.407625000000003
20
20.939265000000002
10
-57.024895000000001
20
21.415170999999997
10
-57.705007000000002
20
21.988523000000004
10
-58.440472
20
22.665565999999995
10
-59.150976
20
23.379358999999997
10
-58.816439000000003
20
24.364851999999999
10
-58.356133
20
25.298276000000008
10
-57.349015000000001
20
25.300875999999999
10
-56.350216000000003
20
25.259575999999999
10
-55.463884999999998
20
25.18408599999999
10
-54.690891999999998
20
25.084125999999998
10
-54.031475999999998
20
24.969403000000003
10
-53.386490999999992
20
24.827982999999989
10
-53.135900999999997
20
24.813693000000008
10
-52.988125999999994
20
24.864013000000007
10
-51.980983999999999
20
26.906279000000008
10
-52.031034000000005
20
27.054153999999997
10
-52.194973000000005
20
27.244205000000008
10
-52.699824
20
27.669813000000012
10
-53.192256
20
28.123124000000015
10
-53.742129000000006
20
28.675547999999988
10
-54.341585000000009
20
29.332746000000007
10
-54.982387000000003
20
30.100011000000002
10
-55.593643999999998
20
30.900429000000003
10
-55.133335000000002
20
31.833825999999998
10
-54.555132999999998
20
32.699161000000018
10
-53.556328000000008
20
32.570002000000002
10
-52.571466999999998
20
32.398685
10
-51.702570000000001
20
32.208158000000005
10
-50.949238000000001
20
32.008159999999997
10
-50.310436000000003
20
31.808346000000007
10
-49.689429000000004
20
31.583953000000005
10
-49.442859000000006
20
31.536993000000013
10
-49.289782000000002
20
31.567603000000002
10
-48.024683999999993
20
33.460932
10
-48.055003999999997
20
33.614063000000002
10
-48.192729999999997
20
33.823901000000006
10
-48.637709000000001
20
34.311757999999998
10
-49.066760000000002
20
34.825473000000002
10
-49.539825000000008
20
35.444925999999995
10
-50.048366999999999
20
36.17476600000002
10
-50.583539999999999
20
37.019097000000016
10
-51.085093999999998
20
37.892444000000012
10
-50.506889999999999
20
38.757786999999993
10
-49.820682000000005
20
39.540258000000001
10
-48.847282999999997
20
39.281831999999994
10
-47.893208999999999
20
38.983424000000007
10
-47.056614999999994
20
38.681106000000014
10
-46.335830999999999
20
38.384487000000007
10
-45.728576000000004
20
38.103015000000013
10
-45.142174000000004
20
37.799467000000021
10
-44.903840000000002
20
37.720737
10
-44.748078000000007
20
37.731087000000016
10
-43.246673000000001
20
39.44310999999999
10
-43.256753000000003
20
39.598889000000014
10
-43.365913999999997
20
39.824909000000005
10
-43.743409
20
40.366672999999992
10
-44.101733999999993
20
40.931995000000008
10
-44.489896000000002
20
41.607897000000008
10
-44.898826000000007
20
42.397871000000009
10
-45.319210999999996
20
43.304834
10
-45.70248200000001
20
44.236175000000003
10
-45.016274000000003
20
45.018643000000012
10
-44.233802999999995
20
45.704851000000005
10
-43.302461999999991
20
45.321583000000004
10
-42.395499000000001
20
44.901194999999987
10
-41.605525
20
44.492265000000003
10
-40.929625999999999
20
44.104103000000009
10
-40.364304000000004
20
43.745778000000008
10
-39.822538000000002
20
43.368284000000017
10
-39.596519999999998
20
43.259124
10
-39.440739000000001
20
43.249044000000012
10
-37.728715000000001
20
44.750447999999992
10
-37.718375000000002
20
44.906209000000018
10
-37.797094999999999
20
45.144543000000006
10
-38.100645999999998
20
45.730944000000008
10
-38.382114999999999
20
46.33820200000001
10
-38.678733999999999
20
47.058985000000021
10
-38.981053000000003
20
47.895577000000017
10
-39.279463000000007
20
48.849651000000009
10
-39.537886999999998
20
49.823053000000002
10
-38.755415999999997
20
50.509261000000016
10
-37.890072000000004
20
51.087462000000023
10
-37.016725000000001
20
50.585910000000013
10
-36.172395000000002
20
50.050737999999981
10
-35.442554999999999
20
49.542192999999997
10
-34.823101999999999
20
49.069128000000006
10
-34.309387000000001
20
48.640079999999998
10
-33.821528999999998
20
48.195101000000008
10
-33.611694
20
48.057372000000015
10
-33.458560999999996
20
48.027051999999998
10
-31.565209999999997
20
49.292147000000014
10
-31.534620000000004
20
49.445227000000003
10
-31.581559999999996
20
49.691795000000013
10
-31.805973999999999
20
50.312803000000002
10
-32.005774000000002
20
50.95160300000002
10
-32.205773000000001
20
51.704937999999991
10
-32.396307
20
52.57383200000001
10
-32.567633000000001
20
53.558695999999998
10
-32.696791999999995
20
54.557497999999995
10
-31.831447999999995
20
55.135702000000002
10
-30.898035
20
55.596009000000009
10
-30.097626000000002
20
54.984752000000015
10
-29.330373999999999
20
54.343950000000007
10
-28.673153999999993
20
53.744493999999996
10
-28.120749000000004
20
53.19462399999999
10
-27.66743
20
52.702191999999997
10
-27.24183
20
52.197341000000002
10
-27.051765999999997
20
52.033401999999995
10
-26.903897999999998
20
51.983352000000011
10
-24.861620000000002
20
52.990494000000012
10
-24.811309999999995
20
53.138269000000008
10
-24.825669999999999
20
53.388856000000011
10
-24.967105000000004
20
54.033841000000002
10
-25.081815000000006
20
54.693257000000003
10
-25.181775000000002
20
55.466250000000002
10
-25.257265000000004
20
56.352583000000024
10
-25.298575
20
57.351383000000027
10
-25.296275000000001
20
58.358497999999997
10
-24.362864000000002
20
58.818807000000021
10
-23.377355999999992
20
59.15334099999999
10
-22.663578999999999
20
58.442839000000006
10
-21.986530999999996
20
57.707371999999992
10
-21.41317999999999
20
57.02726000000002
10
-20.937272999999994
20
56.409990000000008
10
-20.552108000000004
20
55.862601000000005
10
-20.196043999999993
20
55.306515999999988
10
-20.029003000000003
20
55.119173000000004
10
-19.888934999999996
20
55.050252999999998
10
-17.732669000000001
20
55.782207000000014
10
-17.663498999999998
20
55.922152999999994
10
-17.645029000000001
20
56.17246999999999
10
-17.701069
20
56.830399000000007
10
-17.728729000000001
20
57.499146000000003
10
-17.726928999999998
20
58.278573999999992
10
-17.686078999999999
20
59.167175000000007
10
-17.596668999999999
20
60.162823000000003
10
-17.462917999999998
20
61.161022000000003
10
-16.477409999999999
20
61.495556000000008
10
-15.456667999999993
20
61.698594
10
-14.841735999999992
20
60.901003000000017
10
-14.266478000000005
20
60.083455999999998
10
-13.786803999999995
20
59.334325000000007
10
-13.395539000000003
20
58.660216999999989
10
-13.085117999999998
20
58.067238000000003
10
-12.804682999999999
20
57.469436000000016
10
-12.663525
20
57.261892000000003
10
-12.533650999999999
20
57.175282000000024
10
-10.300292999999998
20
57.619523000000008
10
-10.213453000000001
20
57.749243000000007
10
-10.162462999999997
20
57.995009000000017
10
-10.132143000000005
20
58.654623000000008
10
-10.072273000000003
20
59.321257000000003
10
-9.9687609999999971
20
60.093785000000025
10
-9.8122800000000066
20
60.969452000000004
10
-9.5936719999999909
20
61.944910000000007
10
-9.3307749999999956
20
62.917111000000006
10
-8.3100319999999961
20
63.12015000000001
10
-7.2715209999999963
20
63.188219999999987
10
-6.7659569999999913
20
62.317190999999994
10
-6.3023310000000077
20
61.431551000000013
10
-5.9245419999999971
20
60.626219999999989
10
-5.6246129999999983
20
59.906808000000012
10
-5.3942469999999965
20
59.278383000000012
10
-5.1942410000000017
20
58.649089999999987
10
-5.0813799999999976
20
58.424898000000013
10
-4.9639219999999895
20
58.322075000000012
10
-2.6916849999999926
20
58.471004000000022
10
-2.5886540000000036
20
58.588278000000003
10
-2.506024
20
58.825286000000006
10
-2.3898669999999989
20
59.475298999999993
10
-2.2434979999999971
20
60.128416999999992
10
-2.0400369999999945
20
60.880824000000011
10
-1.7705970000000004
20
61.728578000000013
10
-1.4265370000000033
20
62.667155000000022
10
-1.0389909999999958
20
63.596724000000009
10
-0.00047900000000211662
20
63.664793999999993
10
1.0380330000000004
20
63.596724000000009
10
1.425578999999999
20
62.667155000000022
10
1.7696390000000051
20
61.728578000000013
10
2.0390790000000081
20
60.880824000000011
10
2.2425400000000106
20
60.128416999999992
10
2.3889090000000035
20
59.475298999999993
10
2.5050589999999939
20
58.826593000000003
10
2.5876889999999975
20
58.589585000000014
10
2.6907209999999981
20
58.472311000000019
10
4.962958000000004
20
58.323382000000024
10
5.0804160000000032
20
58.42620500000001
10
5.1932760000000044
20
58.650397000000005
10
5.393283000000002
20
59.279689999999988
10
5.6236490000000039
20
59.908114999999995
10
5.9235780000000116
20
60.627527000000008
10
6.3013670000000044
20
61.43285800000001
10
6.7649930000000058
20
62.318497999999991
10
7.2705559999999991
20
63.189527000000005
10
8.3090680000000017
20
63.121457000000021
10
9.3298099999999984
20
62.918418000000003
10
9.5927079999999876
20
61.94621699999999
10
9.8113160000000121
20
60.970759000000001
10
9.9677959999999999
20
60.095092000000001
10
10.071308999999999
20
59.322564
10
10.13117900000001
20
58.655930000000005
10
10.161498999999994
20
57.996315999999993
10
10.212489000000007
20
57.750550000000018
10
10.299329000000004
20
57.620830000000005
10
12.532686999999996
20
57.176589
10
12.662560999999997
20
57.263199
10
12.803718999999987
20
57.470743000000013
10
13.084154000000003
20
58.068545
10
13.394573999999997
20
58.661524000000007
10
13.785840000000009
20
59.335632000000018
10
14.265514000000001
20
60.084762999999981
10
14.840772000000007
20
60.902310000000028
10
15.455703000000005
20
61.699900999999997
10
16.476445999999996
20
61.496862999999991
10
17.461954000000013
20
61.162329
10
17.595703999999994
20
60.16413
10
17.685124000000005
20
59.168482000000026
10
17.725964000000012
20
58.279881000000003
10
17.727763999999997
20
57.500453000000022
10
17.700104000000003
20
56.831706000000004
10
17.644064000000004
20
56.173777000000001
10
17.662534000000001
20
55.923460000000006
10
17.731704000000015
20
55.78351399999999
10
19.887969999999999
20
55.051560000000009
10
20.028038000000006
20
55.120480000000001
10
20.195077999999995
20
55.307822999999999
10
20.551143000000014
20
55.863909000000014
10
20.936307000000003
20
56.411297000000005
10
21.412214000000009
20
57.028566999999995
10
21.985565000000005
20
57.708679000000004
10
22.662613
20
58.444146000000003
10
23.376391000000005
20
59.154648000000009
10
24.36190100000001
20
58.820113999999997
10
25.295310999999998
20
58.359805000000016
10
25.297310999999993
20
57.35269000000001
10
25.256011000000012
20
56.35389
10
25.180510999999992
20
55.467556999999999
10
25.080511000000012
20
54.694563999999986
10
24.96580100000001
20
54.035148
10
24.824360999999993
20
53.390162999999987
10
24.809961000000005
20
53.139576000000019
10
24.860261000000001
20
52.991801000000009
10
26.902541000000006
20
51.984659000000022
10
27.050400999999997
20
52.034709000000007
10
27.240470999999999
20
52.198647999999999
10
27.666070999999999
20
52.703498999999994
10
28.119391000000018
20
53.195931000000002
10
28.671790999999995
20
53.745801000000014
10
29.329011000000005
20
54.345257000000018
10
30.096261000000002
20
54.986059000000012
10
30.896670999999998
20
55.597315999999992
10
31.830090999999996
20
55.137010000000011
10
32.695430999999999
20
54.558805000000007
10
32.566271000000015
20
53.560002999999995
10
32.394941000000017
20
52.575138999999993
10
32.204411000000007
20
51.70624500000001
10
32.00441099999999
20
50.952910000000017
10
31.804611000000005
20
50.314111000000011
10
31.580200999999999
20
49.69310200000001
10
31.533300999999998
20
49.446534
10
31.563901000000012
20
49.293454000000011
10
33.457251000000014
20
48.028359000000016
10
33.610381000000018
20
48.058679000000012
10
33.820221000000004
20
48.196408000000019
10
34.308071000000012
20
48.641387000000016
10
34.821791000000019
20
49.070435000000003
10
35.441241000000012
20
49.543499999999995
10
36.171081000000015
20
50.052044999999993
10
37.015411
20
50.587216999999995
10
37.888761000000017
20
51.088769999999997
10
38.75410100000002
20
50.510567999999992
10
39.536571000000009
20
49.824360000000013
10
39.278151000000001
20
48.85095800000002
10
38.979741000000004
20
47.896884000000014
10
38.67742100000001
20
47.060292999999987
10
38.380801000000005
20
46.339509000000021
10
38.099331000000021
20
45.732251000000019
10
37.795781000000019
20
45.145850000000003
10
37.717081000000015
20
44.907515999999994
10
37.727381000000015
20
44.751755000000003
10
39.439411
20
43.250351000000009
10
39.595191000000014
20
43.260430999999997
10
39.821201000000016
20
43.369591
10
40.362970999999987
20
43.747085000000027
10
40.928291000000016
20
44.10541000000002
10
41.604190999999986
20
44.493572000000015
10
42.394171000000007
20
44.902501999999998
10
43.301130999999998
20
45.322889999999987
10
44.23247099999999
20
45.706158000000002
10
45.014941000000007
20
45.019950000000009
10
45.70115100000001
20
44.237482
10
45.317881
20
43.306140999999997
10
44.897490999999988
20
42.399178000000006
10
44.488561000000004
20
41.60920400000002
10
44.100401000000019
20
40.933302000000005
10
43.742081000000006
20
40.36798000000001
10
43.364581000000015
20
39.826217000000014
10
43.255420999999998
20
39.600196000000011
10
43.24532099999999
20
39.444417000000001
10
44.746720999999994
20
37.732394000000014
10
44.902490999999998
20
37.722043999999997
10
45.140820999999995
20
37.800774000000018
10
45.727221
20
38.10432200000001
10
46.334481000000025
20
38.385794000000004
10
47.055261000000002
20
38.682413000000011
10
47.89185100000001
20
38.984731000000025
10
48.845931000000022
20
39.283139000000006
10
49.819331000000005
20
39.54156500000002
10
50.505540999999994
20
38.75909399999999
10
51.083740999999989
20
37.893751000000009
10
50.582191000000009
20
37.020404000000013
10
50.047011000000019
20
36.176073000000017
10
49.538471000000008
20
35.446232999999992
10
49.065411000000019
20
34.826779999999999
10
48.636351000000019
20
34.313064999999995
10
48.191381000000021
20
33.825208000000003
10
48.053651000000016
20
33.615369999999999
10
48.023351000000005
20
33.462238999999997
10
49.288451000000002
20
31.568900000000006
10
49.441531000000012
20
31.53829
10
49.688101000000003
20
31.585250000000009
10
50.309100999999998
20
31.809643000000012
10
50.947901000000009
20
32.009456000000007
10
51.70124100000001
20
32.209455000000005
10
52.570131000000018
20
32.399981000000011
10
53.554990999999994
20
32.571308999999999
10
54.553800999999993
20
32.700468000000015
10
55.132001000000002
20
31.835122000000009
10
55.592311000000016
20
30.901724999999995
10
54.981051000000001
20
30.101307999999989
10
54.340250999999995
20
29.334042
10
53.740801000000005
20
28.676843999999999
10
53.190920999999989
20
28.124420000000008
10
52.698491000000004
20
27.671109999999999
10
52.193641
20
27.245501000000001
10
52.029701000000017
20
27.055451000000001
10
51.979701000000006
20
26.907575000000001
10
52.986840999999991
20
24.865309
10
53.134611000000014
20
24.814989000000001
10
53.385201000000002
20
24.829279
10
54.030191000000002
20
24.970698999999996
10
54.689601000000003
20
25.085421999999991
10
55.462600999999992
20
25.185382000000001
10
56.348931000000007
20
25.260871999999992
10
57.347731000000017
20
25.302172000000009
10
58.354841000000008
20
25.299572000000001
10
58.815151000000014
20
24.366149000000004
10
59.149691000000004
20
23.380655000000008
10
58.439181000000019
20
22.666862000000005
10
57.703721000000016
20
21.989819999999991
10
57.02361100000001
20
21.41646800000002
10
56.406340999999998
20
20.940562000000007
10
55.858940999999987
20
20.555408000000011
10
55.302861000000014
20
20.199332000000005
10
55.115521000000015
20
20.032300000000003
10
55.046620999999988
20
19.892230000000009
10
55.778571000000014
20
17.735955000000008
10
55.918521000000005
20
17.666795000000004
10
56.168841
20
17.648275000000009
10
56.826770999999994
20
17.70431499999999
10
57.495511000000015
20
17.73196500000001
10
58.274940999999991
20
17.729365000000001
10
59.163540999999995
20
17.688515000000002
10
60.159190999999993
20
17.599114999999994
10
61.15739099999999
20
17.465367999999994
10
61.491921000000005
20
16.479847999999997
10
61.694961000000021
20
15.459112000000008
10
60.897371000000007
20
14.844193999999993
10
60.079820999999995
20
14.268935999999997
10
59.330690999999987
20
13.789246999999989
10
58.65658100000001
20
13.397981000000003
10
58.063601000000006
20
13.087571999999996
10
57.465801000000013
20
12.807140000000006
10
57.258261000000005
20
12.665984999999997
10
57.171661000000014
20
12.536101000000004
10
57.615911000000025
20
10.302726
10
57.745621000000007
20
10.215886000000003
10
57.991390999999993
20
10.164895999999999
10
58.651011000000025
20
10.134575999999997
10
59.317641000000009
20
10.074706000000013
10
60.090171000000012
20
9.9712010000000006
10
60.965840999999998
20
9.8147260000000003
10
61.941290999999993
20
9.596127000000001
10
62.913501000000011
20
9.3332109999999968
10
63.116531000000009
20
8.3124749999999992
10
63.184631000000024
20
7.2739589999999943
10
62.31360100000002
20
6.7683930000000103
0
LWPOLYLINE
5
101
100
AcDbEntity
8
0
100
AcDbPolyline
90
228
70
1
43
0.0
10
98.248770000000007
20
14.478368
10
98.262370000000004
20
14.391298000000001
10
98.257370000000023
20
14.132006000000004
10
98.456180000000018
20
13.151434000000004
10
98.862770000000012
20
12.683333000000003
10
101.13988000000001
20
12.683333000000003
10
101.54646000000002
20
13.151434000000004
10
101.74528000000002
20
14.132006000000004
10
101.74028000000001
20
14.391298000000001
10
101.75388000000001
20
14.478368
10
101.92527999999999
20
14.979515000000003
10
102.39435
20
15.829860000000002
10
103.28108000000002
20
16.929521000000005
10
103.78102000000001
20
17.365925000000001
10
104.61492000000001
20
17.218896000000004
10
105.41062000000002
20
16.929283000000005
10
105.62538000000002
20
16.301373999999999
10
105.84348000000003
20
14.905670000000006
10
105.82458000000003
20
13.934728999999997
10
105.72245000000002
20
13.415008000000006
10
105.69065000000002
20
13.332798000000004
10
105.55662
20
13.110759000000007
10
105.23851000000001
20
12.162148999999999
10
105.35657
20
11.553475000000002
10
107.32861000000001
20
10.414920000000006
10
107.91476000000002
20
10.617009000000007
10
108.57723000000001
20
11.366810999999998
10
108.70249000000001
20
11.593903000000008
10
108.75779000000001
20
11.662513000000001
10
109.15680000000002
20
12.010810000000001
10
109.98819
20
12.512698
10
111.30596
20
13.021677000000007
10
111.95712
20
13.149656
10
112.60578000000001
20
12.605355000000003
10
113.15007000000001
20
11.956703000000005
10
113.02210000000002
20
11.305537000000003
10
112.51313000000002
20
9.9877790000000015
10
112.01124000000002
20
9.1563789999999994
10
111.66294000000001
20
8.7573609999999995
10
111.59434000000002
20
8.702041000000003
10
111.36726000000002
20
8.5767610000000012
10
110.61746000000001
20
7.914297000000003
10
110.41537000000002
20
7.3281390000000073
10
111.55393000000002
20
5.3561200000000024
10
112.16260000000003
20
5.238036000000001
10
113.11121000000001
20
5.5561709999999991
10
113.33323000000001
20
5.6901829999999993
10
113.41543000000001
20
5.7219330000000017
10
113.93513
20
5.8240890000000007
10
114.90609000000003
20
5.843138999999999
10
116.30179000000001
20
5.6250430000000033
10
116.92970000000001
20
5.4102800000000002
10
117.21931000000001
20
4.6145720000000008
10
117.36635000000001
20
3.7806850000000014
10
116.92994000000002
20
3.2807279999999994
10
115.83028
20
2.3940040000000029
10
114.97993000000001
20
1.924950000000003
10
114.47879000000002
20
1.7535269999999992
10
114.39169000000001
20
1.7400370000000009
10
114.13240000000002
20
1.7450370000000004
10
113.15182000000001
20
1.5462290000000012
10
112.68373
20
1.1396440000000019
10
112.68373
20
-1.1374660000000003
10
113.15182000000001
20
-1.5440509999999996
10
114.13240000000002
20
-1.7428589999999988
10
114.39169000000001
20
-1.7378589999999972
10
114.47879000000002
20
-1.7513489999999976
10
114.97993000000001
20
-1.9227459999999974
10
115.83028
20
-2.3918249999999985
10
116.92994000000002
20
-3.2785499999999979
10
117.36635000000001
20
-3.7784799999999974
10
117.21931000000001
20
-4.6123940000000001
10
116.92970000000003
20
-5.4081019999999995
10
116.30179000000001
20
-5.6228379999999989
10
114.90609000000001
20
-5.840959999999999
10
113.93513000000002
20
-5.821909999999999
10
113.41543000000001
20
-5.7197809999999993
10
113.33323000000001
20
-5.6880309999999978
10
113.11121000000001
20
-5.5539929999999993
10
112.16260000000003
20
-5.2358849999999997
10
111.55393000000002
20
-5.3539419999999982
10
110.41537000000002
20
-7.3259869999999978
10
110.61746000000001
20
-7.9121449999999989
10
111.36726000000002
20
-8.5746089999999988
10
111.59434000000002
20
-8.6998619999999978
10
111.66294000000001
20
-8.7552119999999984
10
112.01124000000002
20
-9.1542039999999982
10
112.51313000000003
20
-9.9856039999999986
10
113.02210000000002
20
-11.303387999999996
10
113.15007000000001
20
-11.954536999999998
10
112.60578000000002
20
-12.603207000000001
10
111.95712000000002
20
-13.147487
10
111.30596
20
-13.019537
10
109.98819
20
-12.510556999999999
10
109.15680000000002
20
-12.008666999999997
10
108.75779000000001
20
-11.660367000000001
10
108.70249000000001
20
-11.591727000000001
10
108.57723000000001
20
-11.364660999999998
10
107.91476000000002
20
-10.614858999999999
10
107.32861
20
-10.41277
10
105.35657
20
-11.551325000000002
10
105.23851000000002
20
-12.160001999999999
10
105.55662000000001
20
-13.108611999999999
10
105.69065000000002
20
-13.330621999999998
10
105.72245000000001
20
-13.412822
10
105.82458000000003
20
-13.932511999999999
10
105.84348000000003
20
-14.903481999999999
10
105.62538000000002
20
-16.299181999999998
10
105.41062000000002
20
-16.927091999999998
10
104.61492000000001
20
-17.216701999999998
10
103.78102
20
-17.363731999999999
10
103.28108
20
-16.927332
10
102.39435
20
-15.827672
10
101.92528000000001
20
-14.977321999999999
10
101.75388000000001
20
-14.476182
10
101.74028000000001
20
-14.389082
10
101.74528000000002
20
-14.129811999999999
10
101.54646000000001
20
-13.149211999999999
10
101.13988000000001
20
-12.681111999999999
10
98.862770000000012
20
-12.681111999999999
10
98.456180000000018
20
-13.149211999999999
10
98.257370000000009
20
-14.129811999999999
10
98.262370000000004
20
-14.389082
10
98.248770000000007
20
-14.476182
10
98.077370000000016
20
-14.977321999999999
10
97.608300000000014
20
-15.827672
10
96.72157
20
-16.927332
10
96.221630000000019
20
-17.363731999999999
10
95.387720000000016
20
-17.216701999999998
10
94.592030000000008
20
-16.927091999999998
10
94.37727000000001
20
-16.299181999999998
10
94.159160000000014
20
-14.903481999999999
10
94.178060000000002
20
-13.932511999999999
10
94.280190000000005
20
-13.412822
10
94.311990000000009
20
-13.330621999999998
10
94.446020000000019
20
-13.108611999999999
10
94.764130000000009
20
-12.160001999999999
10
94.646070000000009
20
-11.551325000000002
10
92.674030000000016
20
-10.412769999999998
10
92.087870000000009
20
-10.614858999999999
10
91.425399999999996
20
-11.364660999999998
10
91.300140000000013
20
-11.591727000000001
10
91.244840000000025
20
-11.660366999999997
10
90.845830000000021
20
-12.008666999999997
10
90.014440000000008
20
-12.510556999999999
10
88.696670000000012
20
-13.019537000000001
10
88.045500000000004
20
-13.147487
10
87.396850000000015
20
-12.603206999999998
10
86.852560000000011
20
-11.954536999999998
10
86.980530000000016
20
-11.303387999999998
10
87.489490000000018
20
-9.9856039999999986
10
87.991390000000024
20
-9.1542039999999982
10
88.339690000000019
20
-8.7552119999999984
10
88.408290000000008
20
-8.6998619999999978
10
88.635370000000009
20
-8.5746089999999988
10
89.385170000000016
20
-7.9121449999999989
10
89.587260000000015
20
-7.3259869999999978
10
88.448700000000017
20
-5.3539419999999982
10
87.840030000000013
20
-5.2358849999999997
10
86.891410000000008
20
-5.5539929999999993
10
86.669390000000007
20
-5.6880309999999978
10
86.587190000000021
20
-5.7197809999999993
10
86.067480000000018
20
-5.821909999999999
10
85.096530000000016
20
-5.840959999999999
10
83.700830000000011
20
-5.6228379999999989
10
83.072920000000011
20
-5.4081019999999995
10
82.783310000000014
20
-4.6123940000000001
10
82.63627000000001
20
-3.7784799999999974
10
83.072670000000016
20
-3.2785499999999979
10
84.17234000000002
20
-2.3918249999999985
10
85.022689999999997
20
-1.9227459999999974
10
85.523830000000004
20
-1.7513489999999976
10
85.61093000000001
20
-1.7378589999999972
10
85.870220000000018
20
-1.7428589999999988
10
86.850790000000018
20
-1.5440509999999996
10
87.31889000000001
20
-1.1374660000000003
10
87.31889000000001
20
1.1396440000000019
10
86.850790000000018
20
1.5462290000000012
10
85.870220000000018
20
1.7450370000000004
10
85.61093000000001
20
1.7400370000000009
10
85.523830000000032
20
1.7535269999999992
10
85.022690000000011
20
1.924950000000003
10
84.172340000000005
20
2.3940040000000029
10
83.072670000000016
20
3.2807279999999994
10
82.63627000000001
20
3.7806850000000014
10
82.783310000000014
20
4.6145720000000008
10
83.072920000000011
20
5.4102800000000002
10
83.700830000000011
20
5.6250430000000033
10
85.096530000000016
20
5.843138999999999
10
86.067480000000018
20
5.8240890000000007
10
86.587190000000021
20
5.7219330000000017
10
86.669390000000007
20
5.6901829999999993
10
86.891410000000008
20
5.5561709999999991
10
87.840030000000013
20
5.238036000000001
10
88.448700000000017
20
5.3561200000000024
10
89.587260000000001
20
7.3281390000000073
10
89.385170000000016
20
7.914297000000003
10
88.635370000000009
20
8.5767610000000012
10
88.408290000000008
20
8.702041000000003
10
88.33968999999999
20
8.7573609999999995
10
87.991390000000024
20
9.1563789999999994
10
87.489490000000018
20
9.9877790000000015
10
86.980530000000016
20
11.305537000000003
10
86.852560000000011
20
11.956703000000005
10
87.396850000000015
20
12.605355000000003
10
88.045500000000004
20
13.149656
10
88.696670000000012
20
13.021677000000007
10
90.014440000000036
20
12.512698
10
90.845830000000007
20
12.010810000000001
10
91.244840000000011
20
11.662513000000001
10
91.300140000000013
20
11.593903000000008
10
91.425399999999996
20
11.366810999999998
10
92.087870000000009
20
10.617009000000007
10
92.674030000000016
20
10.414920000000006
10
94.646070000000009
20
11.553475000000002
10
94.764130000000009
20
12.162148999999999
10
94.446020000000019
20
13.110759000000007
10
94.311990000000009
20
13.332798000000004
10
94.280190000000005
20
13.415008000000006
10
94.178060000000002
20
13.934728999999997
10
94.159160000000014
20
14.905670000000006
10
94.377270000000024
20
16.301373999999999
10
94.592030000000022
20
16.929283000000005
10
95.387720000000016
20
17.218896000000004
10
96.221630000000005
20
17.365925000000001
10
96.721570000000014
20
16.929521000000005
10
97.608300000000014
20
15.829860000000002
10
98.077370000000016
20
14.979515000000003
0
CIRCLE
5
102
100
AcDbEntity
8
0
100
AcDbCircle
10
0
20
0
30
0
40
4
210
0
220
0
230
1
0
LINE
5
103
100
AcDbEntity
8
0
100
AcDbLine
10
102.5
20
5
30
0
11
97.5
21
5
31
0
0
LINE
5
104
100
AcDbEntity
8
0
100
AcDbLine
10
97.5
20
5
30
0
11
97.5
21
-5
31
0
0
LINE
5
105
100
AcDbEntity
8
0
100
AcDbLine
10
97.5
20
-5
30
0
11
102.5
21
-5
31
0
0
LINE
5
106
100
AcDbEntity
8
0
100
AcDbLine
10
102.5
20
-5
30
0
11
102.5
21
5
31
0
0
LINE
5
107
100
AcDbEntity
8
0
100
AcDbLine
10
102.5
20
5
30
0
11
97.5
21
-5
31
0
0
LINE
5
108
100
AcDbEntity
8
0
100
AcDbLine
10
97.5
20
5
30
0
11
102.5
21
-5
31
0
0
LWPOLYLINE
5
109
100
AcDbEntity
8
0
100
AcDbPolyline
90
6
70
1
43
0.0
10
4.9999999999999991
20
41.306779104645763
42
-0.48562222809126043
10
11.176470588237922
20
46.166400175791409
42
-0.28100295040909645
10
46.166400175792113
20
11.176470588234977
42
-0.48562222809124078
10
41.306779104657245
20
4.9999999999999902
10
18.330302779823363
20
4.9999999999999929
42
0.26554197333185803
10
4.9999999999999982
20
18.330302779823363
0
LWPOLYLINE
5
110
100
AcDbEntity
8
0
100
AcDbPolyline
90
6
70
1
43
0.0
10
-11.176470588234988
20
46.166400175792113
42
-0.48562222809124084
10
-4.9999999999999991
20
41.306779104657245
10
-5
20
18.330302779823363
42
0.26554197333185797
10
-18.330302779823363
20
4.9999999999999929
10
-41.306779104645763
20
4.9999999999999929
42
-0.48562222809126032
10
-46.166400175791409
20
11.176470588237915
42
-0.28100295040909645
0
LWPOLYLINE
5
111
100
AcDbEntity
8
0
100
AcDbPolyline
90
6
70
1
43
0.0
10
-46.16640017579212
20
-11.176470588234997
42
-0.48562222809124084
10
-41.306779104657252
20
-5.0000000000000098
10
-18.330302779823359
20
-5.0000000000000089
42
0.26554197333185775
10
-5.0000000000000036
20
-18.330302779823363
10
-5.0000000000000044
20
-41.306779104645763
42
-0.48562222809126043
10
-11.176470588237905
20
-46.166400175791424
42
-0.28100295040909645
0
LWPOLYLINE
5
112
100
AcDbEntity
8
0
100
AcDbPolyline
90
6
70
1
43
0.0
10
11.176470588234981
20
-46.166400175792113
42
-0.48562222809124084
10
4.9999999999999929
20
-41.306779104657245
10
4.9999999999999964
20
-18.330302779823363
42
0.26554197333185786
10
18.330302779823356
20
-5.000000000000008
10
41.306779104645763
20
-5.0000000000000089
42
-0.48562222809126043
10
46.166400175791409
20
-11.176470588237919
42
-0.28100295040909645
0
ENDSEC
0
SECTION
2
OBJECTS
0
DICTIONARY
5
C
100
AcDbDictionary
3
ACAD_GROUP
350
D
3
ACAD_MLINESTYLE
350
17
0
DICTIONARY
5
D
100
AcDbDictionary
0
DICTIONARY
5
1A
330
C
100
AcDbDictionary
0
DICTIONARY
5
17
100
AcDbDictionary
0
ENDSEC
0
EOF
